<mxfile host="app.diagrams.net" agent="Mozilla/5.0 (Windows NT 10.0; Win64; x64) AppleWebKit/537.36 (KHTML, like Gecko) Chrome/135.0.0.0 Safari/537.36 Edg/135.0.0.0" version="26.2.14">
  <diagram name="Page-1" id="bQXXmXO6sF2ARtRN_31I">
    <mxGraphModel dx="1034" dy="570" grid="1" gridSize="10" guides="1" tooltips="1" connect="1" arrows="1" fold="1" page="1" pageScale="1" pageWidth="850" pageHeight="1100" math="0" shadow="0">
      <root>
        <mxCell id="0" />
        <mxCell id="1" parent="0" />
        <mxCell id="8RK9HkaTxJHfWx39jH-P-1" value="" style="rounded=1;whiteSpace=wrap;html=1;" vertex="1" parent="1">
          <mxGeometry x="340" y="40" width="120" height="60" as="geometry" />
        </mxCell>
        <mxCell id="8RK9HkaTxJHfWx39jH-P-2" value="" style="endArrow=classic;html=1;rounded=0;" edge="1" parent="1" target="8RK9HkaTxJHfWx39jH-P-3">
          <mxGeometry width="50" height="50" relative="1" as="geometry">
            <mxPoint x="399.5" y="100" as="sourcePoint" />
            <mxPoint x="399.5" y="190" as="targetPoint" />
          </mxGeometry>
        </mxCell>
        <mxCell id="8RK9HkaTxJHfWx39jH-P-3" value="" style="rhombus;whiteSpace=wrap;html=1;" vertex="1" parent="1">
          <mxGeometry x="344.75" y="160" width="110.5" height="80" as="geometry" />
        </mxCell>
        <mxCell id="8RK9HkaTxJHfWx39jH-P-4" value="" style="endArrow=classic;html=1;rounded=0;" edge="1" parent="1" target="8RK9HkaTxJHfWx39jH-P-5">
          <mxGeometry width="50" height="50" relative="1" as="geometry">
            <mxPoint x="455.25" y="200" as="sourcePoint" />
            <mxPoint x="520" y="200" as="targetPoint" />
          </mxGeometry>
        </mxCell>
        <mxCell id="8RK9HkaTxJHfWx39jH-P-5" value="" style="ellipse;whiteSpace=wrap;html=1;aspect=fixed;" vertex="1" parent="1">
          <mxGeometry x="540" y="180" width="40" height="40" as="geometry" />
        </mxCell>
        <mxCell id="8RK9HkaTxJHfWx39jH-P-6" value="no" style="text;html=1;align=center;verticalAlign=middle;whiteSpace=wrap;rounded=0;" vertex="1" parent="1">
          <mxGeometry x="460" y="170" width="60" height="30" as="geometry" />
        </mxCell>
        <mxCell id="8RK9HkaTxJHfWx39jH-P-7" value="A" style="text;html=1;align=center;verticalAlign=middle;whiteSpace=wrap;rounded=0;" vertex="1" parent="1">
          <mxGeometry x="530" y="185" width="60" height="30" as="geometry" />
        </mxCell>
        <mxCell id="8RK9HkaTxJHfWx39jH-P-9" value="lamp does not work" style="text;html=1;align=center;verticalAlign=middle;whiteSpace=wrap;rounded=0;" vertex="1" parent="1">
          <mxGeometry x="370" y="55" width="60" height="30" as="geometry" />
        </mxCell>
        <mxCell id="8RK9HkaTxJHfWx39jH-P-10" value="" style="endArrow=classic;html=1;rounded=0;" edge="1" parent="1">
          <mxGeometry width="50" height="50" relative="1" as="geometry">
            <mxPoint x="399.5" y="240" as="sourcePoint" />
            <mxPoint x="400" y="280" as="targetPoint" />
          </mxGeometry>
        </mxCell>
        <mxCell id="8RK9HkaTxJHfWx39jH-P-13" value="" style="rhombus;whiteSpace=wrap;html=1;" vertex="1" parent="1">
          <mxGeometry x="350" y="280" width="100" height="80" as="geometry" />
        </mxCell>
        <mxCell id="8RK9HkaTxJHfWx39jH-P-14" value="Bulb band out?" style="text;html=1;align=center;verticalAlign=middle;whiteSpace=wrap;rounded=0;" vertex="1" parent="1">
          <mxGeometry x="370" y="310" width="60" height="30" as="geometry" />
        </mxCell>
        <mxCell id="8RK9HkaTxJHfWx39jH-P-15" value="" style="endArrow=classic;html=1;rounded=0;" edge="1" parent="1" target="8RK9HkaTxJHfWx39jH-P-16">
          <mxGeometry width="50" height="50" relative="1" as="geometry">
            <mxPoint x="399.5" y="360" as="sourcePoint" />
            <mxPoint x="400" y="410" as="targetPoint" />
          </mxGeometry>
        </mxCell>
        <mxCell id="8RK9HkaTxJHfWx39jH-P-16" value="" style="rounded=1;whiteSpace=wrap;html=1;" vertex="1" parent="1">
          <mxGeometry x="140" y="335" width="120" height="60" as="geometry" />
        </mxCell>
        <mxCell id="8RK9HkaTxJHfWx39jH-P-18" value="repair bulb" style="text;html=1;align=center;verticalAlign=middle;whiteSpace=wrap;rounded=0;" vertex="1" parent="1">
          <mxGeometry x="170" y="350" width="60" height="30" as="geometry" />
        </mxCell>
        <mxCell id="8RK9HkaTxJHfWx39jH-P-20" value="" style="endArrow=classic;html=1;rounded=0;exitX=1;exitY=0.5;exitDx=0;exitDy=0;" edge="1" parent="1" source="8RK9HkaTxJHfWx39jH-P-13">
          <mxGeometry width="50" height="50" relative="1" as="geometry">
            <mxPoint x="450" y="302.85999999999996" as="sourcePoint" />
            <mxPoint x="600" y="317.1457142857143" as="targetPoint" />
          </mxGeometry>
        </mxCell>
        <mxCell id="8RK9HkaTxJHfWx39jH-P-21" value="" style="rounded=1;whiteSpace=wrap;html=1;" vertex="1" parent="1">
          <mxGeometry x="600" y="280" width="120" height="60" as="geometry" />
        </mxCell>
        <mxCell id="8RK9HkaTxJHfWx39jH-P-22" value="is it pluged in?" style="text;html=1;align=center;verticalAlign=middle;whiteSpace=wrap;rounded=0;" vertex="1" parent="1">
          <mxGeometry x="365" y="185" width="60" height="30" as="geometry" />
        </mxCell>
        <mxCell id="8RK9HkaTxJHfWx39jH-P-23" value="replace bulb" style="text;html=1;align=center;verticalAlign=middle;whiteSpace=wrap;rounded=0;" vertex="1" parent="1">
          <mxGeometry x="630" y="295" width="60" height="30" as="geometry" />
        </mxCell>
        <mxCell id="8RK9HkaTxJHfWx39jH-P-25" value="yes" style="text;html=1;align=center;verticalAlign=middle;whiteSpace=wrap;rounded=0;" vertex="1" parent="1">
          <mxGeometry x="350" y="250" width="60" height="30" as="geometry" />
        </mxCell>
        <mxCell id="8RK9HkaTxJHfWx39jH-P-26" value="yes" style="text;html=1;align=center;verticalAlign=middle;whiteSpace=wrap;rounded=0;" vertex="1" parent="1">
          <mxGeometry x="490" y="280" width="60" height="30" as="geometry" />
        </mxCell>
        <mxCell id="8RK9HkaTxJHfWx39jH-P-27" value="no" style="text;html=1;align=center;verticalAlign=middle;whiteSpace=wrap;rounded=0;" vertex="1" parent="1">
          <mxGeometry x="280" y="330" width="60" height="30" as="geometry" />
        </mxCell>
      </root>
    </mxGraphModel>
  </diagram>
</mxfile>
